<svg xmlns="http://www.w3.org/2000/svg" version="1.1" xmlns:xlink="http://www.w3.org/1999/xlink" xmlns:svgjs="http://svgjs.dev/svgjs" width="1000" height="161" viewBox="0 0 1000 161"><g transform="matrix(1,0,0,1,-0.5047543751413741,0.339892873311598)"><svg viewBox="0 0 396 64" data-background-color="#ffffff" preserveAspectRatio="xMidYMid meet" height="161" width="1000" xmlns="http://www.w3.org/2000/svg" xmlns:xlink="http://www.w3.org/1999/xlink"><defs></defs><g id="tight-bounds" transform="matrix(1,0,0,1,0.23999931936305074,-0.12953136215313066)"><svg viewBox="0 0 395.52 56.350303060237195" height="56.350303060237195" width="395.52"><g><svg viewBox="0 0 486.1586497321066 69.26372180360009" height="56.350303060237195" width="395.52"><g><rect width="4.519735103045989" height="50.36905963286402" x="74.28714734359988" y="9.447331085368035" fill="#31c48d" opacity="1" stroke-width="0" stroke="transparent" fill-opacity="1" class="rect-o-0" data-fill-palette-color="primary" rx="1%" id="o-0" data-palette-color="#31c48d"></rect></g><g transform="matrix(1,0,0,1,90.63864973210657,9.572627253608989)"><svg viewBox="0 0 395.52 50.118467296382114" height="50.118467296382114" width="395.52"><g><svg viewBox="0 0 395.52 50.118467296382114" height="50.118467296382114" width="395.52"><g><svg viewBox="0 0 395.52 50.118467296382114" height="50.118467296382114" width="395.52"><g transform="matrix(1,0,0,1,0,0)"><svg width="395.52" viewBox="1.9500000476837158 -35.20000076293945 277.2799987792969 35.54999923706055" height="50.118467296382114" data-palette-color="#31c48d"><g class="undefined-text-0" data-fill-palette-color="primary" id="text-0"><path d="M1.95-34.75L26.2-34.75 26.2-30.1 16.95-30.1 16.95 0 11.25 0 11.25-30.1 1.95-30.1 1.95-34.75ZM54-34.75L59.7-34.75 59.7 0 54 0 54-15.2 37.65-15.2 37.65 0 31.95 0 31.95-34.75 37.65-34.75 37.65-19.85 54-19.85 54-34.75ZM86.4-30.15L72.9-30.15 72.9-19.95 84.9-19.95 84.9-15.3 72.9-15.3 72.9-4.65 86.4-4.65 86.4 0 67.2 0 67.2-34.8 86.4-34.8 86.4-30.15Z" fill="#31c48d" data-fill-palette-color="primary"></path><path d="M101.6 0.35Q98.1 0.35 95.3-0.88 92.5-2.1 90.9-4.35 89.3-6.6 89.3-9.6L89.3-9.6 95.4-9.6Q95.6-7.35 97.18-5.9 98.75-4.45 101.6-4.45L101.6-4.45Q104.55-4.45 106.2-5.88 107.85-7.3 107.85-9.55L107.85-9.55Q107.85-11.3 106.83-12.4 105.8-13.5 104.28-14.1 102.75-14.7 100.05-15.4L100.05-15.4Q96.65-16.3 94.53-17.23 92.4-18.15 90.9-20.1 89.4-22.05 89.4-25.3L89.4-25.3Q89.4-28.3 90.9-30.55 92.4-32.8 95.1-34 97.8-35.2 101.35-35.2L101.35-35.2Q106.4-35.2 109.63-32.68 112.85-30.15 113.2-25.75L113.2-25.75 106.9-25.75Q106.75-27.65 105.1-29 103.45-30.35 100.75-30.35L100.75-30.35Q98.3-30.35 96.75-29.1 95.2-27.85 95.2-25.5L95.2-25.5Q95.2-23.9 96.18-22.88 97.15-21.85 98.65-21.25 100.15-20.65 102.75-19.95L102.75-19.95Q106.2-19 108.38-18.05 110.55-17.1 112.08-15.13 113.6-13.15 113.6-9.85L113.6-9.85Q113.6-7.2 112.18-4.85 110.75-2.5 108.03-1.07 105.3 0.35 101.6 0.35L101.6 0.35ZM120.35-34.75L126.05-34.75 126.05 0 120.35 0 120.35-34.75ZM164.05-34.75L170.15-34.75 170.15 0 164.45 0 164.45-23.8 153.85 0 149.9 0 139.25-23.8 139.25 0 133.55 0 133.55-34.75 139.7-34.75 151.9-7.5 164.05-34.75ZM201.94-24.4Q201.94-21.75 200.69-19.4 199.44-17.05 196.69-15.58 193.94-14.1 189.64-14.1L189.64-14.1 183.34-14.1 183.34 0 177.64 0 177.64-34.75 189.64-34.75Q193.64-34.75 196.42-33.38 199.19-32 200.57-29.65 201.94-27.3 201.94-24.4L201.94-24.4ZM189.64-18.75Q192.89-18.75 194.49-20.23 196.09-21.7 196.09-24.4L196.09-24.4Q196.09-30.1 189.64-30.1L189.64-30.1 183.34-30.1 183.34-18.75 189.64-18.75ZM213.09-34.75L213.09-4.6 224.84-4.6 224.84 0 207.39 0 207.39-34.75 213.09-34.75ZM248.79-30.15L235.29-30.15 235.29-19.95 247.29-19.95 247.29-15.3 235.29-15.3 235.29-4.65 248.79-4.65 248.79 0 229.59 0 229.59-34.8 248.79-34.8 248.79-30.15ZM267.23 0.35Q263.73 0.35 260.93-0.88 258.13-2.1 256.53-4.35 254.93-6.6 254.93-9.6L254.93-9.6 261.03-9.6Q261.23-7.35 262.81-5.9 264.38-4.45 267.23-4.45L267.23-4.45Q270.18-4.45 271.84-5.88 273.48-7.3 273.48-9.55L273.48-9.55Q273.48-11.3 272.46-12.4 271.43-13.5 269.91-14.1 268.38-14.7 265.68-15.4L265.68-15.4Q262.28-16.3 260.16-17.23 258.03-18.15 256.53-20.1 255.03-22.05 255.03-25.3L255.03-25.3Q255.03-28.3 256.53-30.55 258.03-32.8 260.73-34 263.43-35.2 266.98-35.2L266.98-35.2Q272.03-35.2 275.26-32.68 278.48-30.15 278.84-25.75L278.84-25.75 272.53-25.75Q272.38-27.65 270.73-29 269.09-30.35 266.38-30.35L266.38-30.35Q263.93-30.35 262.38-29.1 260.84-27.85 260.84-25.5L260.84-25.5Q260.84-23.9 261.81-22.88 262.78-21.85 264.28-21.25 265.78-20.65 268.38-19.95L268.38-19.95Q271.84-19 274.01-18.05 276.18-17.1 277.71-15.13 279.23-13.15 279.23-9.85L279.23-9.85Q279.23-7.2 277.81-4.85 276.38-2.5 273.66-1.07 270.93 0.35 267.23 0.35L267.23 0.35Z" fill="#adbfb8" data-fill-palette-color="secondary"></path></g></svg></g></svg></g></svg></g></svg></g><g><svg viewBox="0 0 62.455380058139184 69.26372180360009" height="69.26372180360009" width="62.455380058139184"><g><svg xmlns="http://www.w3.org/2000/svg" data-name="Layer 1" viewBox="6.297991752624512 0 115.41812133789062 128" x="0" y="0" height="69.26372180360009" width="62.455380058139184" class="icon-icon-0" data-fill-palette-color="accent" id="icon-0"><path d="M7 92a2 2 0 0 0 2.82-0.24L24.74 74.12a2 2 0 0 0-1.53-3.29H15.64V45.76l1.65 1.65a2 2 0 0 0 2.83-2.83l-5-5a2 2 0 0 0-2.83 0l-5 5a2 2 0 0 0 2.83 2.83l1.52-1.52V72.83a2 2 0 0 0 2 2H18.9L6.76 89.2A2 2 0 0 0 7 92Z" fill="#096a2e" data-fill-palette-color="accent"></path><path d="M102.21 128a7 7 0 0 0 2-13.71V14h3a2 2 0 0 0 2-2V2a2 2 0 0 0-2-2h-10a2 2 0 0 0-2 2V12a2 2 0 0 0 2 2h3V114.29a7 7 0 0 0 2 13.71Zm-3-118V4h6v6Zm3 108a3 3 0 1 1-3 3A3 3 0 0 1 102.21 118Z" fill="#096a2e" data-fill-palette-color="accent"></path><path d="M89.71 73.83a2 2 0 0 0 2-2v-28l1.59 1.59a2 2 0 0 0 2.83-2.83l-5-5a2 2 0 0 0-2.83 0l-5 5a2 2 0 0 0 2.83 2.83l1.59-1.59v28A2 2 0 0 0 89.71 73.83Z" fill="#096a2e" data-fill-palette-color="accent"></path><path d="M44.29 92.49a2 2 0 0 0 1.53-0.71L60.74 74.12a2 2 0 0 0-1.53-3.29H51.64V45.76l1.65 1.65a2 2 0 0 0 2.83-2.83l-5-5a2 2 0 0 0-2.83 0l-5 5a2 2 0 0 0 2.83 2.83l1.52-1.52V72.83a2 2 0 0 0 2 2H54.9L42.76 89.2a2 2 0 0 0 1.53 3.29Z" fill="#096a2e" data-fill-palette-color="accent"></path><path d="M114.71 73.83a2 2 0 0 0 2-2v-28l1.59 1.59a2 2 0 0 0 2.83-2.83l-5-5a2 2 0 0 0-2.83 0l-5 5a2 2 0 0 0 2.83 2.83l1.59-1.59v28A2 2 0 0 0 114.71 73.83Z" fill="#096a2e" data-fill-palette-color="accent"></path><path d="M43 72a2 2 0 0 0-1.81-1.16H33.64V44.23a2 2 0 0 0-0.47-1.29l-7.34-8.69 9.61-11.38a2 2 0 0 0 0-2.58L31.7 15.86V14h2.51a2 2 0 0 0 2-2V2a2 2 0 0 0-2-2h-10a2 2 0 0 0-2 2V12a2 2 0 0 0 2 2H27.7v2.59a2 2 0 0 0 0.47 1.29l3.13 3.7L21.68 33a2 2 0 0 0 0 2.58l8 9.42V72.83a2 2 0 0 0 2 2H36.9L24.76 89.2a2 2 0 0 0 0 2.58l7.47 8.85v13.66a7 7 0 1 0 4 0V99.89a2 2 0 0 0-0.47-1.29l-6.85-8.11L42.74 74.12A2 2 0 0 0 43 72ZM26.21 10V4h6v6Zm11 111a3 3 0 1 1-3-3A3 3 0 0 1 37.21 121Z" fill="#096a2e" data-fill-palette-color="accent"></path></svg></g></svg></g></svg></g></svg><rect width="395.52" height="56.350303060237195" fill="none" stroke="none" visibility="hidden"></rect></g></svg></g></svg>