<svg xmlns="http://www.w3.org/2000/svg" version="1.1" xmlns:xlink="http://www.w3.org/1999/xlink" xmlns:svgjs="http://svgjs.dev/svgjs" width="1000" height="199" viewBox="0 0 1000 199"><g transform="matrix(1,0,0,1,-0.6060606060606801,0.46120325407730434)"><svg viewBox="0 0 396 79" data-background-color="#ffffff" preserveAspectRatio="xMidYMid meet" height="199" width="1000" xmlns="http://www.w3.org/2000/svg" xmlns:xlink="http://www.w3.org/1999/xlink"><defs></defs><g id="tight-bounds" transform="matrix(1,0,0,1,0.24000000000003752,-0.18309073905581386)"><svg viewBox="0 0 395.5199999999999 79.36618147811161" height="79.36618147811161" width="395.5199999999999"><g><svg viewBox="0 0 528.6931860714745 106.08909625806453" height="79.36618147811161" width="395.5199999999999"><g transform="matrix(1,0,0,1,133.17318607147456,14.66209651612904)"><svg viewBox="0 0 395.52 76.76490322580645" height="76.76490322580645" width="395.52"><g><svg viewBox="0 0 395.52 76.76490322580645" height="76.76490322580645" width="395.52"><g><svg viewBox="0 0 395.52 76.76490322580645" height="76.76490322580645" width="395.52"><g transform="matrix(1,0,0,1,0,0)"><svg width="395.52" viewBox="3.9000000953674316 -35.5 185.98001098632812 36.099998474121094" height="76.76490322580645" data-palette-color="#8abe53"><path d="M3.9 0L3.9-35 9.4-35 9.4-5.05 21.95-5.05 21.95 0 3.9 0ZM29.3-8.85L29.3-7.45Q29.3-6.05 30.07-5.28 30.85-4.5 32.35-4.5L32.35-4.5Q34.65-4.5 38.5-6.5L38.5-6.5 40.5-1.75Q38.7-0.6 36.4 0 34.1 0.6 31.8 0.6L31.8 0.6Q28.1 0.6 25.92-1.23 23.75-3.05 23.75-6.7L23.75-6.7 23.75-16.95Q23.75-21 26.27-23.25 28.8-25.5 32.95-25.5L32.95-25.5Q37.1-25.5 39.42-23.28 41.75-21.05 41.75-17.1L41.75-17.1 41.75-9.5 29.3-8.85ZM36.2-17Q36.2-18.5 35.25-19.3 34.3-20.1 32.9-20.1L32.9-20.1Q31-20.1 30.15-19.1 29.3-18.1 29.3-16.9L29.3-16.9 29.3-13.9 36.2-14.35 36.2-17ZM64.8 0Q59.4 0.55 57 0.55L57 0.55Q51.75 0.55 48.65-1.4 45.55-3.35 45.55-8.45L45.55-8.45 45.55-12.6Q45.55-17.55 49-19.25L49-19.25Q50.65-20.05 52.75-20.05L52.75-20.05Q54.6-20.05 56.4-19.55 58.2-19.05 59.3-18.45L59.3-18.45Q59.3-20.3 57.8-20.98 56.3-21.65 53.95-21.65L53.95-21.65 54.4-25.45Q59.2-25.45 61.47-23.93 63.75-22.4 64.27-20.3 64.8-18.2 64.8-14.9L64.8-14.9 64.8 0ZM59.3-12.6Q58.4-13.25 56.77-13.83 55.15-14.4 53.8-14.4L53.8-14.4Q52.6-14.4 51.85-13.8 51.1-13.2 51.1-11.9L51.1-11.9 51.1-9.15Q51.1-4.6 56.45-4.6L56.45-4.6Q58-4.6 59.3-4.85L59.3-4.85 59.3-12.6ZM69.64 0L69.64-25.05 74.74-25.05 75.14-24.85Q77.19-25.55 78.99-25.55L78.99-25.55Q80.24-25.55 82.64-25.05L82.64-25.05 83.64-24.85 82.34-19.5Q80.94-20.2 79.59-20.2L79.59-20.2Q77.74-20.2 76.44-19.07 75.14-17.95 75.14-16.1L75.14-16.1 75.14 0 69.64 0ZM99.24 0L99.24-15.75Q99.24-17.75 98.12-18.98 96.99-20.2 95.09-20.2L95.09-20.2Q93.54-20.2 91.74-19.3L91.74-19.3 91.74 0 86.29 0 86.29-25.05 91.14-25.05 91.79-24.75Q93.89-25.45 96.14-25.45L96.14-25.45Q98.64-25.45 100.49-24.55L100.49-24.55Q102.49-23.65 103.62-21.85 104.74-20.05 104.74-17.3L104.74-17.3 104.74 0 99.24 0ZM133.29 0L133.29-18.5 127.44 0 123.24 0 117.49-18.45 117.49 0 111.99 0 111.99-35 117.49-35 125.34-11.85 133.29-35 138.79-35 138.79 0 133.29 0ZM164.14-1.15Q159.69 0.5 155.84 0.5L155.84 0.5Q151.49 0.5 148.79-1.8 146.09-4.1 146.09-9.15L146.09-9.15 146.09-25.2Q146.09-29 147.16-30.95 148.24-32.9 150.44-34.25L150.44-34.25Q152.64-35.5 155.84-35.5L155.84-35.5Q159.74-35.5 162.89-33.85L162.89-33.85 161.34-28.85Q159.04-29.7 156.29-29.7L156.29-29.7Q154.19-29.7 152.89-28.55 151.59-27.4 151.59-25.65L151.59-25.65 151.59-9.25Q151.59-5.05 156.29-5.05L156.29-5.05Q157.79-5.05 159.29-5.38 160.79-5.7 163.29-6.35L163.29-6.35 164.14-1.15ZM172.03-9.75Q172.28-7.55 173.83-6.2 175.38-4.85 177.88-4.85L177.88-4.85Q179.98-4.85 181.31-5.55 182.63-6.25 183.23-7.25 183.83-8.25 183.83-9.2L183.83-9.2Q183.83-11.4 182.76-12.88 181.68-14.35 180.11-15.23 178.53-16.1 175.83-17.25L175.83-17.25Q172.88-18.5 171.16-19.53 169.43-20.55 168.21-22.33 166.98-24.1 166.98-26.85L166.98-26.85Q166.98-29.05 168.23-31.03 169.48-33 172.03-34.25 174.58-35.5 178.28-35.5L178.28-35.5Q180.73-35.5 182.33-35.15 183.93-34.8 185.58-34L185.58-34 183.83-28.8Q182.03-29.4 180.91-29.65 179.78-29.9 178.33-29.9L178.33-29.9Q175.48-29.9 174.13-28.9 172.78-27.9 172.93-26.35L172.93-26.35Q173.08-25.1 174.46-24.2 175.83-23.3 178.73-22L178.73-22Q182.13-20.5 184.38-19.15 186.63-17.8 188.26-15.45 189.88-13.1 189.88-9.7L189.88-9.7Q189.88-5.25 186.93-2.35 183.98 0.55 177.93 0.55L177.93 0.55Q174.23 0.55 171.61-0.83 168.98-2.2 167.61-4.38 166.23-6.55 166.13-8.9L166.13-8.9 172.03-9.75Z" opacity="1" transform="matrix(1,0,0,1,0,0)" fill="#8abe53" class="undefined-text-0" data-fill-palette-color="primary" id="text-0"></path></svg></g></svg></g></svg></g></svg></g><g><svg viewBox="0 0 115.05083477753907 106.08909625806453" height="106.08909625806453" width="115.05083477753907"><g><svg xmlns="http://www.w3.org/2000/svg" xmlns:xlink="http://www.w3.org/1999/xlink" version="1.1" x="0" y="0" viewBox="50 66 412.1000061035156 380" style="enable-background:new 0 0 512 512;" xml:space="preserve" height="106.08909625806453" width="115.05083477753907" class="icon-icon-0" data-fill-palette-color="accent" id="icon-0"><g fill="#8abe53" data-fill-palette-color="accent"><path d="M50 326.9c0 12.8 10.7 23.1 23.6 23.1h364.9c12.8 0 23.6-10.3 23.6-23.1V306H50V326.9z" fill="#8abe53" data-fill-palette-color="accent"></path><path d="M263.2 179.2C263.2 179.2 263.2 179.2 263.2 179.2c0-4.5-3.7-8.2-8.2-8.2-4.5 0-8.2 3.7-8.2 8.2s3.7 8.2 8.2 8.2C259.6 187.4 263.2 183.7 263.2 179.2z" fill="#8abe53" data-fill-palette-color="accent"></path><path d="M255.1 116.1c-4.5 0-8.2 3.7-8.2 8.2 0 4.5 3.7 8.2 8.2 8.2 4.5 0 8.2-3.7 8.2-8.2 0 0 0 0 0 0C263.2 119.8 259.6 116.1 255.1 116.1z" fill="#8abe53" data-fill-palette-color="accent"></path><path d="M255.1 227.7c-4.5 0-8.2 3.7-8.2 8.2 0 4.5 3.7 8.2 8.2 8.2 4.5 0 8.2-3.7 8.2-8.2C263.2 231.4 259.6 227.7 255.1 227.7z" fill="#8abe53" data-fill-palette-color="accent"></path><path d="M200.2 171c-4.5 0-8.2 3.7-8.2 8.2s3.7 8.2 8.2 8.2c4.5 0 8.2-3.7 8.2-8.2 0 0 0 0 0 0C208.4 174.6 204.7 171 200.2 171z" fill="#8abe53" data-fill-palette-color="accent"></path><path d="M200.2 132.5c4.5 0 8.2-3.7 8.2-8.2 0-4.5-3.7-8.2-8.2-8.2-4.5 0-8.2 3.7-8.2 8.2 0 0 0 0 0 0C192 128.8 195.7 132.5 200.2 132.5z" fill="#8abe53" data-fill-palette-color="accent"></path><path d="M200.2 227.7c-4.5 0-8.2 3.7-8.2 8.2 0 4.5 3.7 8.2 8.2 8.2 4.5 0 8.2-3.7 8.2-8.2 0 0 0 0 0 0C208.4 231.4 204.7 227.7 200.2 227.7z" fill="#8abe53" data-fill-palette-color="accent"></path><path d="M438.4 66H73.6C60.7 66 50.2 76.4 50 89.2V294h412V89.2C461.8 76.4 451.3 66 438.4 66zM291.6 124.3c0-11.1 9-20.2 20.2-20.2 11.2 0 20.2 9 20.2 20.2s-9 20.2-20.2 20.2S291.6 135.5 291.6 124.3C291.6 124.3 291.6 124.3 291.6 124.3zM200.2 256.1c-11.2 0-20.2-9-20.2-20.2 0-11.2 9-20.2 20.2-20.2 11.2 0 20.2 9 20.2 20.2C220.4 247.1 211.3 256.1 200.2 256.1zM275.2 235.9c0 11.2-9 20.2-20.1 20.3-11.2 0-20.2-9-20.3-20.1 0-1.8 0.2-3.6 0.7-5.3L203.8 199c-11 2-21.5-5.2-23.6-16.2-0.2-1.2-0.3-2.4-0.3-3.7 0-8.7 6.1-16.1 13.1-18.9v-17c-7-2.8-13.1-10.2-13.1-18.9 0-11.1 9-20.2 20.2-20.2s20.2 9 20.2 20.2c0 0 0 0 0 0 0.1 9.3-6.2 17.3-15.2 19.5v15.8c10.8 2.7 17.4 13.7 14.7 24.5-0.8 3.4-2.5 6.4-4.9 8.9l27.4 27.3c2.3-1.9 5-3.3 7.9-4v-17.7c-10.8-2.8-17.3-13.8-14.5-24.6 2.8-10.8 13.8-17.3 24.6-14.5 10.8 2.8 17.3 13.8 14.5 24.6-1.7 6.4-6.4 11.6-12.6 13.9V217C269.9 219.9 275.2 227.5 275.2 235.9L275.2 235.9zM319 198.1V217c7 2.8 13.1 10.2 13.1 18.9 0 11.1-9 20.2-20.2 20.2-11.1 0-20.2-9-20.2-20.2 0 0 0 0 0 0-0.1-9.3 6.2-17.3 15.2-19.5v-17.7c-10.8-2.7-17.4-13.7-14.6-24.5 0.3-1.3 0.8-2.6 1.4-3.9l-28.5-28.6c-9.7 5.7-22.1 2.5-27.8-7.1-5.7-9.7-2.5-22.1 7.1-27.8 9.7-5.7 22.1-2.5 27.8 7.1 3.4 5.8 3.8 12.9 0.9 18.9l28.6 28.8c3-1.7 6.4-2.6 9.9-2.6 11.2 0 20.2 9 20.3 20.2C332.1 187.8 326 195.3 319 198.1z" fill="#8abe53" data-fill-palette-color="accent"></path><path d="M311.8 132.5c4.5 0 8.2-3.7 8.2-8.2 0-4.5-3.7-8.2-8.2-8.2-4.5 0-8.2 3.7-8.2 8.2 0 0 0 0 0 0C303.6 128.8 307.3 132.5 311.8 132.5z" fill="#8abe53" data-fill-palette-color="accent"></path><path d="M311.8 171c-4.5 0-8.2 3.7-8.2 8.2s3.7 8.2 8.2 8.2 8.2-3.7 8.2-8.2c0 0 0 0 0 0C320 174.6 316.3 171 311.8 171z" fill="#8abe53" data-fill-palette-color="accent"></path><path d="M311.8 227.7c-4.5 0-8.2 3.7-8.2 8.2 0 4.5 3.7 8.2 8.2 8.2 4.5 0 8.2-3.7 8.2-8.2C320 231.4 316.3 227.7 311.8 227.7z" fill="#8abe53" data-fill-palette-color="accent"></path><path d="M351.2 434H318v-78H194v78h-27.9c-3.3 0-6 2.7-6 6s2.7 6 6 6h185c3.3 0 6-2.7 6-6S354.5 434 351.2 434z" fill="#8abe53" data-fill-palette-color="accent"></path></g></svg></g></svg></g></svg></g></svg><rect width="395.5199999999999" height="79.36618147811161" fill="none" stroke="none" visibility="hidden"></rect></g></svg></g></svg>